HIERARCHY
ROOT SpineBase
{
  OFFSET 0.000000 0.000000 0.000000
  CHANNELS 6 Xposition Yposition Zposition Zrotation Xrotation Yrotation
  JOINT SpineMid
  {
    OFFSET -0.000000 33.043437 0.000000
    CHANNELS 3 Zrotation Xrotation Yrotation
    JOINT SpineShoulder
    {
      OFFSET 0.206492 24.543433 -0.837620
      CHANNELS 3 Zrotation Xrotation Yrotation
      JOINT Neck
      {
        OFFSET 0.155016 8.118144 -0.609358
        CHANNELS 3 Zrotation Xrotation Yrotation
        JOINT Head
        {
          OFFSET 6.834335 11.410398 5.313758
          CHANNELS 3 Zrotation Xrotation Yrotation
          End Site
          {
            OFFSET 0 0 0
          }
        }
      }
      JOINT ShoulderLeft
      {
        OFFSET -4.544902 -3.359220 -14.250980
        CHANNELS 3 Zrotation Xrotation Yrotation
        JOINT ElbowLeft
        {
          OFFSET -5.196530 -22.360442 -8.683278
          CHANNELS 3 Zrotation Xrotation Yrotation
          JOINT WristLeft
          {
            OFFSET 19.813085 -16.555358 7.271753
            CHANNELS 3 Zrotation Xrotation Yrotation
            JOINT HandLeft
            {
              OFFSET 3.899185 -0.746109 2.833035
              CHANNELS 3 Zrotation Xrotation Yrotation
              JOINT HandTipLeft
              {
                OFFSET 4.653511 -2.725180 1.930081
                CHANNELS 3 Zrotation Xrotation Yrotation
                End Site
                {
                  OFFSET 0 0 0
                }
              }
              JOINT ThumbLeft
              {
                OFFSET -3.656492 -1.893558 -1.910369
                CHANNELS 3 Zrotation Xrotation Yrotation
                End Site
                {
                  OFFSET 0 0 0
                }
              }
            }
          }
        }
      }
      JOINT ShoulderRight
      {
        OFFSET 5.272521 -7.333265 16.288654
        CHANNELS 3 Zrotation Xrotation Yrotation
        JOINT ElbowRight
        {
          OFFSET 2.959316 -22.864759 2.614236
          CHANNELS 3 Zrotation Xrotation Yrotation
          JOINT WristRight
          {
            OFFSET 9.832190 -11.559274 -25.879279
            CHANNELS 3 Zrotation Xrotation Yrotation
            JOINT HandRight
            {
              OFFSET -1.220104 -2.127588 -4.235324
              CHANNELS 3 Zrotation Xrotation Yrotation
              JOINT HandTipRight
              {
                OFFSET -1.192448 -1.191426 -4.201037
                CHANNELS 3 Zrotation Xrotation Yrotation
                End Site
                {
                  OFFSET 0 0 0
                }
              }
              JOINT ThumbRight
              {
                OFFSET -1.251603 3.856742 -2.979045
                CHANNELS 3 Zrotation Xrotation Yrotation
                End Site
                {
                  OFFSET 0 0 0
                }
              }
            }
          }
        }
      }
    }
  }
  JOINT HipLeft
  {
    OFFSET -1.177245 2.617690 -9.904904
    CHANNELS 3 Zrotation Xrotation Yrotation
    JOINT KneeLeft
    {
      OFFSET -3.957215 -35.269379 -2.316693
      CHANNELS 3 Zrotation Xrotation Yrotation
      JOINT AnkleLeft
      {
        OFFSET -7.656571 -36.521036 1.694285
        CHANNELS 3 Zrotation Xrotation Yrotation
        JOINT FootLeft
        {
          OFFSET 8.826025 -2.456252 -5.617737
          CHANNELS 3 Zrotation Xrotation Yrotation
          End Site
          {
            OFFSET 0 0 0
          }
        }
      }
    }
  }
  JOINT HipRight
  {
    OFFSET 3.226897 -0.688901 2.895455
    CHANNELS 3 Zrotation Xrotation Yrotation
    JOINT KneeRight
    {
      OFFSET 1.320330 -31.652199 5.914429
      CHANNELS 3 Zrotation Xrotation Yrotation
      JOINT AnkleRight
      {
        OFFSET -12.702811 -37.050618 2.531792
        CHANNELS 3 Zrotation Xrotation Yrotation
        JOINT FootRight
        {
          OFFSET 2.988789 -7.926698 -2.503059
          CHANNELS 3 Zrotation Xrotation Yrotation
          End Site
          {
            OFFSET 0 0 0
          }
        }
      }
    }
  }
}
MOTION
Frames: 13
Frame Time: 0.033333
-92.880589 72.280643 311.333902 -11.577549 5.297417 -70.624224 -0.611485 0.519926 70.816464 0.644922 0.296955 -0.424187 -15.495529 10.799742 3.797192 0.000000 0.000000 0.000000 51.740870 -21.883215 -0.493922 -18.085130 -8.950029 -1.139700 -19.785153 21.024435 42.902539 0.458043 -27.510067 -42.883844 0.000000 0.000000 0.000000 0.000000 0.000000 0.000000 14.687594 0.632868 3.038576 80.518678 -19.936045 -102.249179 131.113496 16.839358 26.267763 -88.826780 -18.398654 20.480991 0.000000 0.000000 0.000000 0.000000 0.000000 0.000000 5.250468 11.755539 70.550549 -1.239536 -5.486808 0.776165 -55.184837 -17.619410 -44.531349 0.000000 0.000000 0.000000 12.789287 8.437731 69.803724 -0.812651 9.865621 -1.975393 -2.313924 3.872551 6.432154 0.000000 0.000000 0.000000
-92.646857 72.380097 311.548008 -11.035159 5.177283 -71.752853 -0.649474 0.737854 71.950687 0.726393 0.208218 -0.390627 -15.406049 10.342442 3.534782 0.000000 0.000000 0.000000 51.275683 -21.705982 -0.867780 -18.107237 -8.079457 0.183339 -48.492521 8.117655 -179.654816 -48.765300 6.142769 -178.160214 0.000000 0.000000 0.000000 0.000000 0.000000 0.000000 14.378968 4.880059 3.398320 92.223150 -13.570284 -98.888636 -118.154009 58.135201 -25.324377 -153.369253 9.815404 12.099523 0.000000 0.000000 0.000000 0.000000 0.000000 0.000000 5.330904 10.841685 71.673470 -1.008266 -4.309388 0.586481 -53.936804 -16.654583 -48.895841 0.000000 0.000000 0.000000 11.827194 8.371203 71.062086 -0.998783 9.392718 -2.008050 -1.352211 4.740913 6.560933 0.000000 0.000000 0.000000
-92.442811 72.452264 311.769482 -10.383868 5.028675 -73.362530 -0.638185 0.939168 73.556149 0.764033 0.097463 -0.357543 -14.134804 9.939135 2.792133 0.000000 0.000000 0.000000 50.810167 -21.456304 -1.363700 -18.860345 -7.002600 1.625985 34.930240 -11.957695 8.837831 -24.392854 7.683534 -10.241939 0.000000 0.000000 0.000000 0.000000 0.000000 0.000000 13.825252 8.260047 3.584567 95.140133 -8.402818 -94.841923 -71.410941 40.755439 -50.186050 177.482513 13.707390 19.508360 0.000000 0.000000 0.000000 0.000000 0.000000 0.000000 5.654440 9.825076 73.267749 -0.641114 -2.408164 0.299097 -45.326186 -17.918896 -41.086635 0.000000 0.000000 0.000000 10.466092 8.623805 72.900806 -1.653585 8.609475 -2.120917 -0.142121 7.130115 7.264513 0.000000 0.000000 0.000000
-92.274323 72.448880 312.130409 -9.634682 4.744121 -74.595354 -0.644939 1.064173 74.765306 0.757676 0.023935 -0.325253 -12.222908 9.496000 1.866381 0.000000 0.000000 0.000000 50.233538 -20.942800 -2.062523 -19.683884 -6.618823 2.657795 0.828544 10.466807 22.283451 9.009836 -25.182186 -26.996292 0.000000 0.000000 0.000000 0.000000 0.000000 0.000000 13.125392 10.250683 3.586517 90.973718 -4.892572 -89.601127 -54.790287 32.090593 -51.181283 160.120376 13.873848 28.381245 0.000000 0.000000 0.000000 0.000000 0.000000 0.000000 5.637731 8.873971 74.501120 -0.413107 -1.657787 0.207288 -32.621037 -16.867923 -26.808442 0.000000 0.000000 0.000000 9.185329 8.795119 74.360766 -2.598803 8.152027 -2.320924 1.043115 11.313100 8.732047 0.000000 0.000000 0.000000
-92.164919 72.391353 312.545205 -8.854204 4.410852 -76.055838 -0.644840 1.063551 76.188347 0.693905 -0.004976 -0.299979 -9.886848 9.104088 0.830679 0.000000 0.000000 0.000000 49.562067 -20.144851 -2.914670 -21.003566 -6.095529 3.846658 -1.766890 9.854508 20.206751 17.512437 -28.114277 -22.201928 0.000000 0.000000 0.000000 0.000000 0.000000 0.000000 12.355492 10.264931 3.393581 78.583924 -3.609617 -82.045238 -28.916891 20.703801 -50.397353 124.164215 8.260760 36.358692 0.000000 0.000000 0.000000 0.000000 0.000000 0.000000 5.601250 8.018035 75.965649 -0.770970 0.104374 -0.120667 -28.726555 -17.022219 -23.287488 0.000000 0.000000 0.000000 7.614639 9.235804 76.131851 -3.907256 7.437771 -2.604836 3.196647 10.086231 8.029199 0.000000 0.000000 0.000000
-92.340875 71.859017 312.990735 -8.252941 4.097573 -77.051200 -0.529633 1.083164 77.149318 0.522188 -0.033739 -0.292113 -7.722764 8.826423 -0.013040 0.000000 0.000000 0.000000 48.306072 -18.645107 -4.054669 -21.214979 -5.802082 5.125928 -6.152733 8.746710 14.677939 24.560612 -23.419401 -13.232716 0.000000 0.000000 0.000000 0.000000 0.000000 0.000000 11.776758 11.631999 3.336112 73.126415 -2.407004 -76.882857 -22.479045 15.421638 -46.585320 114.633139 0.235460 34.405797 0.000000 0.000000 0.000000 0.000000 0.000000 0.000000 5.846807 7.125744 76.982584 -0.773346 1.652760 -0.370967 -28.479322 -18.016070 -17.476944 0.000000 0.000000 0.000000 6.246638 10.295490 77.529243 -6.229296 7.047666 -3.146415 5.134367 9.282600 8.024096 0.000000 0.000000 0.000000
-92.464548 71.837376 313.612654 -7.584994 3.657735 -77.748172 -0.531952 0.921555 77.798504 0.418399 0.013563 -0.277755 -5.049640 7.848077 -0.773421 0.000000 0.000000 0.000000 46.636445 -16.784095 -5.232537 -20.995068 -5.576991 6.416696 -8.255331 6.899939 8.061801 22.361082 -14.614128 -6.631871 0.000000 0.000000 0.000000 0.000000 0.000000 0.000000 11.208012 12.604868 3.261163 67.596878 0.127402 -71.121546 -11.840488 10.296035 -46.051165 102.216522 -6.436721 32.555344 0.000000 0.000000 0.000000 0.000000 0.000000 0.000000 4.935111 7.847249 77.590879 -2.149365 1.758643 -0.384858 -31.603501 -20.160465 -14.859187 0.000000 0.000000 0.000000 4.822833 11.052501 78.592545 -7.963654 6.683556 -3.654747 5.680511 8.717282 8.352204 0.000000 0.000000 0.000000
-92.470326 72.229973 314.327477 -6.840551 3.139938 -78.064053 -0.602604 0.584404 78.058718 0.435772 0.094034 -0.252975 -2.314265 6.872606 -1.557611 0.000000 0.000000 0.000000 44.787125 -14.574209 -6.492826 -20.921612 -6.152516 7.184846 -9.922020 6.069510 2.927584 16.842153 -8.941963 -2.585028 0.000000 0.000000 0.000000 0.000000 0.000000 0.000000 10.651543 13.279003 3.162262 63.843878 2.488717 -66.819809 -7.763628 5.866080 -43.113743 96.716141 -13.300178 28.953356 0.000000 0.000000 0.000000 0.000000 0.000000 0.000000 3.466045 7.685337 77.895480 -2.602722 1.428057 -0.410116 -44.266977 -24.234990 -22.685978 0.000000 0.000000 0.000000 3.665954 11.312454 79.151508 -8.933429 6.544574 -4.023409 5.388182 8.317489 8.725648 0.000000 0.000000 0.000000
-92.417780 72.913358 315.151214 -6.104933 2.547740 -77.934143 -0.706620 0.190382 77.876197 0.498197 0.188101 -0.226628 -0.085388 5.962161 -2.098237 0.000000 0.000000 0.000000 41.862547 -11.961914 -7.521044 -19.666991 -7.049205 7.232177 -11.085331 5.571629 -1.514491 11.904368 -5.506954 0.978131 0.000000 0.000000 0.000000 0.000000 0.000000 0.000000 10.130168 13.907759 3.059066 58.369792 6.112848 -60.433449 -1.777804 1.196858 -41.372794 74.212123 -23.055499 12.424090 0.000000 0.000000 0.000000 0.000000 0.000000 0.000000 1.458837 7.586742 77.744160 -2.982240 0.535101 -0.397896 -53.767917 -27.017432 -25.864688 0.000000 0.000000 0.000000 2.669043 11.227198 79.163947 -9.244816 6.455928 -4.256972 3.726845 8.285217 9.424486 0.000000 0.000000 0.000000
-92.333849 73.819866 315.950666 -5.389976 1.987030 -77.852038 -0.784044 -0.144926 77.756409 0.538965 0.309050 -0.201369 2.005518 4.808806 -2.473892 0.000000 0.000000 0.000000 38.676589 -9.191139 -8.343780 -17.538820 -8.654013 6.729267 -13.321281 6.314203 -4.946109 10.719258 -4.994373 3.697307 0.000000 0.000000 0.000000 0.000000 0.000000 0.000000 9.702319 14.303259 2.948214 49.796063 9.082322 -51.594044 5.662053 -8.293417 -36.848263 44.185637 -26.823482 -7.050046 0.000000 0.000000 0.000000 0.000000 0.000000 0.000000 -0.259171 7.335080 77.633205 -3.114572 -0.177986 -0.389146 -60.991587 -26.809552 -34.019434 0.000000 0.000000 0.000000 1.447890 10.742597 79.171278 -8.699085 5.816303 -4.293472 0.423224 9.198268 10.589946 0.000000 0.000000 0.000000
-92.174329 74.818351 316.758485 -4.676714 1.374944 -77.557697 -0.916131 -0.408643 77.437897 0.627213 0.387978 -0.172061 3.045827 3.885019 -2.505747 0.000000 0.000000 0.000000 34.185824 -6.567283 -8.442997 -13.985992 -9.719050 5.739346 -14.892900 7.096437 -6.355142 11.769555 -6.126971 3.994144 0.000000 0.000000 0.000000 0.000000 0.000000 0.000000 9.316385 14.733003 2.827916 41.429195 11.899273 -42.437355 7.339458 -14.724494 -31.860024 28.686992 -26.520027 -14.638677 0.000000 0.000000 0.000000 0.000000 0.000000 0.000000 -2.369995 6.952053 77.303027 -2.922190 -1.383363 -0.322620 -49.894196 -25.748692 -28.030147 0.000000 0.000000 0.000000 0.088806 9.975176 78.906146 -7.691050 4.859922 -4.175415 -0.813692 9.381532 10.551007 0.000000 0.000000 0.000000
-91.978060 75.803520 317.419390 -4.079548 0.859053 -77.093962 -1.022242 -0.572256 76.963792 0.695540 0.425271 -0.147734 3.784384 3.130091 -2.480864 0.000000 0.000000 0.000000 29.447714 -4.492226 -7.935537 -10.757941 -9.797070 4.762855 -12.991983 5.178049 -9.763850 8.191496 -3.083312 7.635912 0.000000 0.000000 0.000000 0.000000 0.000000 0.000000 9.058529 16.481868 2.847079 35.213034 12.876245 -34.836433 -1.012569 -22.525095 -17.580377 27.594679 -34.163462 -36.013084 0.000000 0.000000 0.000000 0.000000 0.000000 0.000000 -4.139795 6.558112 76.795732 -2.574356 -2.465336 -0.239295 -27.892462 -20.216386 -15.839681 0.000000 0.000000 0.000000 -1.098216 9.093705 78.406782 -6.444307 3.865014 -3.941822 -2.250192 11.121381 11.083211 0.000000 0.000000 0.000000
-91.802758 76.650816 317.958125 -3.513548 0.529664 -77.006568 -0.992483 -0.632656 76.878712 0.695109 0.401837 -0.127208 4.495810 2.316501 -2.429321 0.000000 0.000000 0.000000 24.691369 -3.072529 -6.993369 -7.102095 -9.204617 3.949478 -10.124136 2.863401 -9.659347 5.959756 -1.987323 6.604455 0.000000 0.000000 0.000000 0.000000 0.000000 0.000000 8.532329 16.445136 2.703050 29.413340 13.720028 -28.598096 -6.487619 -30.785859 -5.463187 17.146686 -33.370758 -41.688242 0.000000 0.000000 0.000000 0.000000 0.000000 0.000000 -5.350380 6.050500 76.656468 -2.209283 -3.165561 -0.170015 -14.558992 -14.313343 -8.728379 0.000000 0.000000 0.000000 -2.215196 8.265052 78.293515 -5.327484 2.892107 -3.732986 -4.133115 13.795088 12.272912 0.000000 0.000000 0.000000
